<svg id="Layer_1" data-name="Layer 1" xmlns="http://www.w3.org/2000/svg" viewBox="0 0 22.35 26.08"><defs><style>.cls-1{fill:#bdc3c7;}.cls-2{fill:#edf0f1;}.cls-3{fill:#e64d3c;}.cls-4{fill:#c03b2b;}</style></defs><rect class="cls-1" y="3.73" width="22.35" height="22.35" rx="2.48"/><path class="cls-2" d="M10.53,7.85a2.49,2.49,0,0,0-2.48,2.49V27.72a2.46,2.46,0,0,0,.72,1.76,2.48,2.48,0,0,0,1.76.73H27.91a2.49,2.49,0,0,0,2.49-2.49V10.34a2.49,2.49,0,0,0-2.49-2.49Z" transform="translate(-8.05 -5.37)"/><path class="cls-3" d="M10.53,7.85a2.49,2.49,0,0,0-2.48,2.49v5H30.4v-5a2.49,2.49,0,0,0-2.49-2.49Z" transform="translate(-8.05 -5.37)"/><circle class="cls-4" cx="3.73" cy="5.59" r="1.86"/><path class="cls-1" d="M11.77,5.37a1.25,1.25,0,0,0-1.24,1.24v3.73a1.24,1.24,0,0,0,2.48,0V6.61a1.23,1.23,0,0,0-1.24-1.24Z" transform="translate(-8.05 -5.37)"/><circle class="cls-4" cx="18.63" cy="5.59" r="1.86"/><path class="cls-1" d="M25.43,25.24v2.48h2.48V25.24Zm-3.72,0v2.48h2.48V25.24Zm-3.73,0v2.48h2.48V25.24Zm-3.72,0v2.48h2.48V25.24Zm-3.73,0v2.48H13V25.24Zm14.9-3.73V24h2.48V21.51Zm-3.72,0V24h2.48V21.51Zm-3.73,0V24h2.48V21.51Zm-3.72,0V24h2.48V21.51Zm-3.73,0V24H13V21.51Zm14.9-3.72v2.48h2.48V17.79Zm-3.72,0v2.48h2.48V17.79Zm-3.73,0v2.48h2.48V17.79Zm-3.72,0v2.48h2.48V17.79Zm-3.73,0v2.48H13V17.79ZM26.67,5.37a1.21,1.21,0,0,0-1.24,1.24v3.73a1.24,1.24,0,1,0,2.48,0V6.61A1.2,1.2,0,0,0,26.67,5.37Z" transform="translate(-8.05 -5.37)"/></svg>