<?xml version="1.0" encoding="UTF-8" standalone="no"?>
<svg
   width="100"
   height="100"
   viewBox="0 0 100 100"
   fill="none"
   version="1.1"
   id="svg1"
   xmlns="http://www.w3.org/2000/svg"
   xmlns:svg="http://www.w3.org/2000/svg">
  <defs
     id="defs1" />
  <path
     d="M 49.999999,0 C 22.4,0 0,22.4 0,49.999999 0,77.6 22.4,100 49.999999,100 77.6,100 100,77.6 100,49.999999 100,22.4 77.6,0 49.999999,0 Z m 0,90 C 27.95,90 10,72.05 10,49.999999 10,27.95 27.95,10 49.999999,10 62.07927,10 72.92814,15.386775 80.26969,23.883412 86.329705,30.896885 90,40.029273 90,49.999999 90,72.05 72.05,90 49.999999,90 Z M 69.4,31.449999 40,60.85 30.6,51.45 c -1.95,-1.95 -5.1,-1.95 -7.05,0 -1.95,1.95 -1.95,5.1 0,7.05 L 36.5,71.45 c 1.95,1.949999 5.1,1.949999 7.05,0 L 76.5,38.499999 C 78.45,36.55 78.45,33.4 76.5,31.449999 74.55,29.5 71.349999,29.5 69.4,31.449999 Z"
     fill="#323232"
     id="path1"
     style="fill:#8ced88;fill-opacity:1;stroke-width:5" />
</svg>
