<?xml version="1.0" encoding="UTF-8" standalone="no"?>
<svg
   width="90"
   height="90"
   viewBox="0 0 20 20"
   fill="none"
   version="1.1"
   id="svg1"
   xmlns="http://www.w3.org/2000/svg"
   xmlns:svg="http://www.w3.org/2000/svg">
  <g
     clip-path="url(#clip0_11_1283)"
     id="g1"
     transform="translate(-1.0936646,-1.0936646)">
    <path
       d="m 12.983665,7.7936647 -1.89,1.89 -1.8900003,-1.89 c -0.39,-0.39 -1.02,-0.39 -1.41,0 -0.39,0.39 -0.39,1.02 0,1.41 l 1.89,1.8900003 -1.89,1.89 c -0.39,0.39 -0.39,1.02 0,1.41 0.39,0.39 1.02,0.39 1.41,0 l 1.8900003,-1.89 1.89,1.89 c 0.39,0.39 1.02,0.39 1.41,0 0.39,-0.39 0.39,-1.02 0,-1.41 l -1.89,-1.89 1.89,-1.8900003 c 0.39,-0.39 0.39,-1.02 0,-1.41 -0.39,-0.38 -1.03,-0.38 -1.41,0 z m -1.89,-6.7000001 c -5.5300003,0 -10.0000004,4.4700001 -10.0000004,10.0000004 0,5.53 4.4700001,10 10.0000004,10 5.53,0 10,-4.47 10,-10 0,-5.5300003 -4.47,-10.0000004 -10,-10.0000004 z m 0,18.0000004 c -4.4100003,0 -8.0000003,-3.59 -8.0000003,-8 0,-4.4100003 3.59,-8.0000003 8.0000003,-8.0000003 4.41,0 8,3.59 8,8.0000003 0,4.41 -3.59,8 -8,8 z"
       fill="#323232"
       id="path1"
       style="fill:#ff0000;fill-opacity:1" />
  </g>
  <defs
     id="defs1">
    <clipPath
       id="clip0_11_1283">
      <rect
         width="24"
         height="24"
         fill="#ffffff"
         id="rect1"
         x="0"
         y="0" />
    </clipPath>
  </defs>
</svg>
