<?xml version="1.0" encoding="utf-8"?>
<!-- Generator: Adobe Illustrator 25.2.0, SVG Export Plug-In . SVG Version: 6.00 Build 0)  -->
<svg version="1.1" id="Layer_1" xmlns:odm="http://product.corel.com/CGS/11/cddns/"
	 xmlns="http://www.w3.org/2000/svg" xmlns:xlink="http://www.w3.org/1999/xlink" x="0px" y="0px" viewBox="0 0 800 396.1"
	 style="enable-background:new 0 0 800 396.1;" xml:space="preserve">
<style type="text/css">
	.st0{fill-rule:evenodd;clip-rule:evenodd;fill:#FFFFFF;}
</style>
<g id="Ebene_1">
	<path class="st0" d="M708.1,150.7c-3,3-12,11-8,16c3,4,14-3,17.9-8c6-7,9-17.9,9-17.9S715.1,144.7,708.1,150.7 M648.3,153.7
		c-7,6-11,13-8,16c4,3,13-3,17.9-9c6-9,8-16.9,8-16.9S660.2,145.7,648.3,153.7 M566.5,99.9c17.9-11,63.8-56.8,52.8-67.8
		C607.4,27.1,575.5,77.9,566.5,99.9 M334.2,178.6c-7,10-15,25.9-9,29.9c6,5,21.9-9,26.9-16c10-12,16.9-28.9,11-31.9
		C354.1,155.7,339.2,172.6,334.2,178.6 M191.6,203.6c22.9-7,59.8-13,72.8-14c11-16.9,44.9-74.8-4-92.7L191.6,203.6z M93.9,278.3
		c11,13,101.7-1,162.5-76.8c-42.9,7-67.8,16-76.8,18.9c-19.9,32.9-27.9,43.9-35.9,42.9c-9-1,6-17.9,14-34.9
		C123.8,238.5,83.9,265.4,93.9,278.3 M59,84.9C116.8,64,181.7,50,248.5,59l6-12c14-2,27.9-4,41.9-5L277.4,70
		c17.9,8,32.9,26.9,34.9,46.9c0,26.9-12,48.9-25.9,69.8l19.9-2c14-21.9,51.8-48.9,66.8-28.9l6-7c0,0,23.9-4,24.9-4
		c-21.9,40.9-33.9,51.8-30.9,55.8c3,4,43.9-30.9,58.8-60.8l23.9-2l-14,23.9c24.9-19.9,32.9-32.9,46.9-27.9
		c17.9,8-22.9,51.8-17.9,54.8c4,2,36.9-21.9,52.8-45.9l-22.9,3l8-14l21.9-3C554.5,83.9,618.3-0.8,638.3,11.1
		c16.9,12-25.9,67.8-82.8,108.7l-3,6l48.9-5c1,0,1,2,0,3c-16,13-46.9,45.9-29.9,56.8c14,5,36.9-28.9,38.9-34.9c-13-4-3-39.9,15-34.9
		c13,4,3,20.9,0,27.9c23.9-3,44.9-26.9,44.9-26.9c0-18.9,12-38.9,25.9-33.9c9,5,1,17.9-13,33.9c-2,2-1,9-2,17.9
		c16-5,33.9-13,48.9-19.9c1-18.9,10-40.9,24.9-35.9c11,3,0,25.9-14,36.9c0,23.9,4,40.9-2,52.8c-7,15-31.9,26.9-46.9,18.9
		c-15-9-2-28.9,8-35.9c8-7,28.9-16.9,28.9-16.9s1-8,1-12c-8,5-47.9,19.9-47.9,19.9c-2,14-1,19.9-8,32.9c-9,16.9-36.9,22.9-46.9,14
		c-6-6-4-21.9,9-32.9c11-8,31.9-16.9,31.9-16.9s2-8,2-12c-14,12-29.9,23.9-50.8,24.9c-12,24.9-44.9,58.8-68.8,42.9
		c-21.9-14,14-52.8,17.9-55.8c-8,0-22.9,4-22.9,4l-39.9,73.8h1c0,0,135.6-16,260.2-16l-15,14c7,5,14,10,21.9,14c0,0-129.6-6-278.2,6
		l-21.9,40.9l-26.9,2l22.9-40.9c0,0-66.8,2-215.4,21.9c2-3,2-3,4-7c132.6-25.9,222.3-31.9,222.3-31.9l19.9-35.9
		c-14,11-41.9,34.9-53.8,22.9c-9-11,20.9-45.9,17.9-47.9c-3-3-38.9,34.9-51.8,54.8c-8,0-21.9,2-21.9,2l11-19.9
		c-12,9-23.9,18.9-37.9,23.9c-3,2-12,2-16-8c0,0-25.9,23.9-43.9,15c-10-5-6-22.9-4-26.9l-20.9,2C186.6,304.3,67,316.2,52,293.3
		c-15-24.9,39.9-58.8,114.7-82.8c0,0,65.8-119.6,64.8-120.6c-91.7-14-205.4,56.8-205.4,56.8L59,84.9z"/>
</g>
</svg>
