<svg id="Layer_1" data-name="Layer 1" xmlns="http://www.w3.org/2000/svg" viewBox="0 0 55.44 55.44"><defs><style>.cls-1{fill:#fff;}.cls-2{fill:#a7a9ac;}</style></defs><path class="cls-1" d="M58.06,29.77l-.77-.33c0-.52,0-1,0-1.56l.57-.25a5.35,5.35,0,0,0,3.29-6.11A17.41,17.41,0,0,0,58,14.16a5.32,5.32,0,0,0-4.35-2.3,5.69,5.69,0,0,0-2.21.46l-.69.29L49.6,11.5c.1-.27.21-.54.31-.82a5.34,5.34,0,0,0-2-6.33,17.42,17.42,0,0,0-7.51-3,5.79,5.79,0,0,0-.92-.07,5.33,5.33,0,0,0-5,3.4c-.1.23-.2.47-.29.71H32.6c0-.07-.07-.14-.1-.22a5.39,5.39,0,0,0-5.13-3.67,11,11,0,0,0-2.09.24A17.15,17.15,0,0,0,19,4.61a5.39,5.39,0,0,0-1.87,6.73l.25.57L16.24,13l-.6-.23a6.12,6.12,0,0,0-2.18-.43,5.28,5.28,0,0,0-4.39,2.38,17.41,17.41,0,0,0-3,7.44,5.33,5.33,0,0,0,3.33,6l.69.28c0,.54,0,1.06,0,1.58l-.53.23a5.39,5.39,0,0,0-3.3,6.27,17.7,17.7,0,0,0,3.1,7.2A5.41,5.41,0,0,0,13.74,46,5.86,5.86,0,0,0,16,45.59l.7-.29,1.13,1.11c-.1.23-.19.47-.28.71a5.33,5.33,0,0,0,1.89,6.38A17.3,17.3,0,0,0,27,56.61a5.54,5.54,0,0,0,.9.07,5.26,5.26,0,0,0,4.92-3.3l.33-.81h1.59c.12.28.25.56.39.85A5.29,5.29,0,0,0,40,56.5a6.44,6.44,0,0,0,.75,0,17.17,17.17,0,0,0,7.89-3.28,5.3,5.3,0,0,0,1.78-6.35L50,46l1.11-1.13.62.23a6,6,0,0,0,2.18.43,5.3,5.3,0,0,0,4.42-2.44,17.67,17.67,0,0,0,3-7.42A5.35,5.35,0,0,0,58.06,29.77ZM45.93,29A12.24,12.24,0,1,1,33.69,16.72,12.24,12.24,0,0,1,45.93,29Z" transform="translate(-5.97 -1.24)"/><path class="cls-2" d="M57.06,33.15c-.69-.29-1.39-.58-2.09-.85a1.36,1.36,0,0,1-.92-1.44c0-1.45,0-2.91,0-4.36a1.37,1.37,0,0,1,.91-1.45c.63-.25,1.26-.53,1.88-.8A1.81,1.81,0,0,0,58,22a14,14,0,0,0-2.54-6,1.77,1.77,0,0,0-2.33-.65c-.68.27-1.34.58-2,.85a1.34,1.34,0,0,1-1.71-.4c-1-1-2-2-3-2.95a1.38,1.38,0,0,1-.46-1.71c.27-.7.57-1.38.83-2.09a1.81,1.81,0,0,0-.7-2.21A14.26,14.26,0,0,0,40,4.45a1.79,1.79,0,0,0-2.11,1.19c-.3.71-.58,1.42-.87,2.13a1.31,1.31,0,0,1-1.37.83c-1.47,0-2.95,0-4.42,0a1.31,1.31,0,0,1-1.38-.81c-.23-.55-.45-1.1-.7-1.64C28.47,4.68,28,4.42,25.91,4.81a13.89,13.89,0,0,0-5,2.32,1.84,1.84,0,0,0-.68,2.49c.25.63.55,1.25.8,1.88a1.38,1.38,0,0,1-.42,1.78c-1,1-2,2-2.95,3a1.36,1.36,0,0,1-1.65.43c-.66-.28-1.31-.53-2-.78a1.77,1.77,0,0,0-2.37.68,13.85,13.85,0,0,0-2.44,6A1.8,1.8,0,0,0,10.4,24.8c.62.26,1.27.51,1.9.76a1.42,1.42,0,0,1,1,1.58c0,1.4,0,2.82.07,4.22a1.38,1.38,0,0,1-.88,1.48l-1.88.8A1.85,1.85,0,0,0,9.38,36a14.39,14.39,0,0,0,2.5,5.85,1.83,1.83,0,0,0,2.38.69l2-.86a1.34,1.34,0,0,1,1.71.41c1,1,2,2,3,3a1.29,1.29,0,0,1,.43,1.7c-.25.68-.54,1.34-.79,2A1.76,1.76,0,0,0,21.28,51a14,14,0,0,0,6.19,2.52,1.75,1.75,0,0,0,2-1.13c.29-.69.55-1.4.84-2.09a1.33,1.33,0,0,1,1.49-.93c1.4,0,2.82,0,4.22-.06a1.35,1.35,0,0,1,1.56.93c.3.69.58,1.38.9,2.07a1.69,1.69,0,0,0,1.82,1,13.72,13.72,0,0,0,6.35-2.63,1.75,1.75,0,0,0,.59-2.18c-.29-.71-.59-1.42-.9-2.14a1.38,1.38,0,0,1,.39-1.66c1-1,2-2,3-3.07a1.36,1.36,0,0,1,1.66-.43l2,.78a1.81,1.81,0,0,0,2.42-.72,14.25,14.25,0,0,0,2.42-6A1.8,1.8,0,0,0,57.06,33.15ZM33.69,41.42A12.46,12.46,0,1,1,46.15,29,12.45,12.45,0,0,1,33.69,41.42Z" transform="translate(-5.97 -1.24)"/><path class="cls-1" d="M33.69,13.12A15.84,15.84,0,1,0,49.53,29,15.84,15.84,0,0,0,33.69,13.12Zm0,28.08A12.24,12.24,0,1,1,45.93,29,12.24,12.24,0,0,1,33.69,41.2Z" transform="translate(-5.97 -1.24)"/></svg>