<svg id="Layer_1" data-name="Layer 1" xmlns="http://www.w3.org/2000/svg" xmlns:xlink="http://www.w3.org/1999/xlink" viewBox="0 0 63.62 70.14"><defs><style>.cls-1{fill:#fff;}.cls-2{fill:#a7a9ac;}.cls-3{fill:url(#linear-gradient);}.cls-4{fill:url(#linear-gradient-2);}.cls-5{opacity:0.91;}</style><linearGradient id="linear-gradient" x1="19.58" y1="31.2" x2="56.34" y2="31.2" gradientUnits="userSpaceOnUse"><stop offset="0" stop-color="#f7a21c"/><stop offset="0.35" stop-color="#f26a26"/><stop offset="0.78" stop-color="#ef4038"/></linearGradient><linearGradient id="linear-gradient-2" x1="36.03" y1="57.6" x2="36.03" y2="0.93" gradientUnits="userSpaceOnUse"><stop offset="0" stop-color="#fff"/><stop offset="0.04" stop-color="#fffbf5"/><stop offset="0.11" stop-color="#feefd9"/><stop offset="0.21" stop-color="#fcddac"/><stop offset="0.32" stop-color="#fac36d"/><stop offset="0.44" stop-color="#f7a31e"/><stop offset="0.45" stop-color="#f7a21c"/><stop offset="0.73" stop-color="#f26a26"/><stop offset="1" stop-color="#ef4038"/></linearGradient></defs><path class="cls-1" d="M64,40.6l-.88-.39V38.42l.66-.28a6.16,6.16,0,0,0,3.89-7,20,20,0,0,0-3.5-8.52,6.14,6.14,0,0,0-5-2.72A8.22,8.22,0,0,0,56,20.6a28.81,28.81,0,0,0-3.54,2l-7.27,5.66-.21.16a14.09,14.09,0,1,1-17.95,0l-.2-.16-7.29-5.67c-.38-.24-2-1.25-3-1.75a8.1,8.1,0,0,0-3.52-1,6,6,0,0,0-5.09,2.67A19.88,19.88,0,0,0,4.31,31,6.13,6.13,0,0,0,8,38c.26.12.52.22.79.33,0,.62,0,1.22,0,1.82l-.62.26a6.2,6.2,0,0,0-3.9,7.16,20.22,20.22,0,0,0,3.45,8.33,6.21,6.21,0,0,0,5,2.73,6.67,6.67,0,0,0,2.55-.49c.28-.09.54-.21.81-.32.43.45.85.87,1.28,1.3-.12.26-.23.54-.33.81a6.14,6.14,0,0,0,2.06,7.38A19.89,19.89,0,0,0,27.89,71a5.21,5.21,0,0,0,1,.1,6.05,6.05,0,0,0,5.72-3.72l.39-.92c.61,0,1.22,0,1.83,0,.14.33.28.65.44,1a6.07,6.07,0,0,0,5.45,3.63,6.34,6.34,0,0,0,.86,0,19.81,19.81,0,0,0,9.14-3.64A6.12,6.12,0,0,0,54.9,60.1c-.12-.31-.24-.63-.38-1,.44-.42.87-.85,1.3-1.28.23.09.47.19.71.27a6.81,6.81,0,0,0,2.5.53,6.1,6.1,0,0,0,5.13-2.73,20.24,20.24,0,0,0,3.55-8.49A6.16,6.16,0,0,0,64,40.6Z" transform="translate(-4.19 -0.93)"/><path class="cls-2" d="M62.83,44.48c-.8-.35-1.59-.69-2.39-1a1.57,1.57,0,0,1-1-1.67c0-1.67,0-3.35,0-5a1.55,1.55,0,0,1,1.07-1.65c.73-.28,1.46-.59,2.18-.89a2.08,2.08,0,0,0,1.43-2.54,16.12,16.12,0,0,0-2.83-6.9A2,2,0,0,0,58.6,24c-.79.3-1.55.64-2.33.95a1.53,1.53,0,0,1-2-.49c-.61-.63-1.23-1.26-1.85-1.87l-7.79,5a16.17,16.17,0,0,1,5.67,11.89,14.34,14.34,0,1,1-28.67-.42c.06-4.35,2.73-9,5.83-11.62l-8-4.85c-.61.6-1.22,1.22-1.82,1.84a1.56,1.56,0,0,1-1.9.47c-.76-.33-1.5-.63-2.26-.94a2.05,2.05,0,0,0-2.74.75,15.89,15.89,0,0,0-2.91,6.88,2.07,2.07,0,0,0,1.35,2.5c.71.32,1.46.61,2.18.91a1.63,1.63,0,0,1,1.15,1.83c0,1.62,0,3.25,0,4.87a1.6,1.6,0,0,1-1,1.68c-.72.31-1.47.59-2.19.89a2.13,2.13,0,0,0-1.47,2.65,16.43,16.43,0,0,0,2.78,6.78,2.1,2.1,0,0,0,2.73.82c.77-.3,1.55-.64,2.33-.95a1.55,1.55,0,0,1,2,.5q1.68,1.75,3.43,3.46a1.47,1.47,0,0,1,.46,2c-.29.78-.64,1.54-.94,2.32a2,2,0,0,0,.69,2.58,16.14,16.14,0,0,0,7.09,3,2,2,0,0,0,2.33-1.26c.36-.79.66-1.6,1-2.39a1.53,1.53,0,0,1,1.73-1c1.61,0,3.24,0,4.86,0a1.54,1.54,0,0,1,1.77,1.09c.34.8.65,1.61,1,2.4a2,2,0,0,0,2.08,1.22,15.65,15.65,0,0,0,7.35-2.93A2,2,0,0,0,51.29,62c-.32-.83-.66-1.65-1-2.48a1.57,1.57,0,0,1,.48-1.9c1.2-1.14,2.36-2.31,3.5-3.49a1.56,1.56,0,0,1,1.92-.46c.75.3,1.49.62,2.25.92a2.06,2.06,0,0,0,2.79-.79,16.23,16.23,0,0,0,2.88-6.89A2.05,2.05,0,0,0,62.83,44.48Z" transform="translate(-4.19 -0.93)"/><path class="cls-3" d="M55.39,35.42c-.76,1.1-1.56,2.43-2.32,3.54l-.36-.18c1.1-4.09,1.41-8.12-.6-12-1.93-3.74-4.9-6.36-8.23-8.92-.11.61-.16.93-.22,1.24-.44,2.59-.85,5.19-1.33,7.77-.36,1.89-.85,3.76-1.17,5.66-.09.52-.17,1-.23,1.57a10.15,10.15,0,0,0-.09,1.65c0,.54.11,1.08.12,1.62a1.36,1.36,0,0,1-.23.93c-.15.17-.36.26-.55.1A3.63,3.63,0,0,1,39.33,36c-.59-5.22.08-10.46-.17-15.69-.36-7.4-3.45-13.09-9.9-16.42-.81-.42-1.69-.7-2.54-1-.13.31-.22.42-.21.53a8.06,8.06,0,0,0,.13,1,26.82,26.82,0,0,1-.85,14.13c-.94,2.84-2,5.65-2.82,8.52-1.18,4-2.1,6-3,10-.65,3-.61,8.07.63,10.88a19.44,19.44,0,0,0,12.15,11A19.28,19.28,0,0,0,48,56.48,18.22,18.22,0,0,0,55.39,35.42Zm-27,12.07a24.28,24.28,0,0,1,2.17-15.33c.23,1.77.3,3.52.44,5.27s1.61,3,2.24,4.63c1.26,3.26,4.66,2.82,7.94,1.59,3.09-1.15,6-1.89,6.78-4a12.64,12.64,0,0,1-.49,6.42,46.29,46.29,0,0,1-2,4.48c2,.12,3.13-1,4.68-2.42C38.7,61.13,29.49,53.13,28.34,47.49Z" transform="translate(-4.19 -0.93)"/><path class="cls-4" d="M53.47,33.49c-.76,1.1-1.56,2.43-2.32,3.54l-.36-.18c1.1-4.09,1.41-8.12-.6-12-1.93-3.74-4.9-6.36-8.23-8.92-.11.61-.16.93-.22,1.24-.44,2.59-.85,5.19-1.33,7.77-.36,1.89-.85,3.76-1.17,5.66-.09.52-.17,1.05-.23,1.57a10.15,10.15,0,0,0-.09,1.65c0,.54.11,1.08.12,1.62a1.36,1.36,0,0,1-.23.93c-.15.17-.36.26-.55.1a3.63,3.63,0,0,1-.85-2.38c-.59-5.22.08-10.46-.17-15.69C36.88,11,33.79,5.3,27.34,2c-.81-.42-1.69-.7-2.54-1-.13.31-.22.42-.21.53a8.06,8.06,0,0,0,.13,1,26.82,26.82,0,0,1-.85,14.13c-.94,2.84-2,5.65-2.82,8.52-1.18,4-2.1,6-3,10-.65,3-.61,8.07.63,10.88A19.44,19.44,0,0,0,30.85,57a19.25,19.25,0,0,0,15.23-2.43A18.22,18.22,0,0,0,53.47,33.49Zm-27,12.07c-1.48-5.3-.08-10.46,2.17-15.33.23,1.77.3,3.52.44,5.27a14.12,14.12,0,0,0,2.37,6,8,8,0,0,0,11.66,2.07,4.72,4.72,0,0,0,.6-.55,1.09,1.09,0,0,1,1.85,1.07s0,0,0,0C42.74,56.29,29,54.65,26.42,45.56Z" transform="translate(-4.19 -0.93)"/><path class="cls-5" d="M29.53,27.22a9.63,9.63,0,0,1,.65-3.46,4.15,4.15,0,0,1,1.34-1.93A1.92,1.92,0,0,1,34.1,22a4.76,4.76,0,0,1,1.25,2.07,10.47,10.47,0,0,1-.13,7.07A4.14,4.14,0,0,1,34,32.9a1.94,1.94,0,0,1-2.77-.13A5.15,5.15,0,0,1,30,30.65,10.53,10.53,0,0,1,29.53,27.22Zm5.65,1.27A9.56,9.56,0,0,0,35,25a5.4,5.4,0,0,0-1.08-2.28,1.4,1.4,0,0,0-2.36,0,5.12,5.12,0,0,0-.63,1,8,8,0,0,0-.72,3.19c0,.54,0,1.08,0,1.62h.07c.06-.11.11-.22.16-.33a4,4,0,0,1,1.1-1.41,1.89,1.89,0,0,1,2.32-.07,3.56,3.56,0,0,1,1,1.2C35,28.09,35.07,28.29,35.18,28.49Z" transform="translate(-4.19 -0.93)"/><path class="cls-5" d="M46.75,28.78A9.42,9.42,0,0,1,46,32.44a4.2,4.2,0,0,1-1.11,1.61,2,2,0,0,1-2.8-.1,5.19,5.19,0,0,1-1.25-2.18,10.73,10.73,0,0,1-.44-4A9.49,9.49,0,0,1,41,25a4.18,4.18,0,0,1,1.38-2,1.91,1.91,0,0,1,2.53.17,4.93,4.93,0,0,1,1.31,2.19A10.15,10.15,0,0,1,46.75,28.78Zm-.66.88A9.88,9.88,0,0,0,45.46,25a3.7,3.7,0,0,0-.93-1.38,1.31,1.31,0,0,0-1.94,0,4.07,4.07,0,0,0-1,1.54,9.66,9.66,0,0,0-.58,4c0,.16,0,.31,0,.47a.42.42,0,0,0,.12-.15,4.34,4.34,0,0,1,.9-1.33,2,2,0,0,1,2-.59,2.31,2.31,0,0,1,1.23.9C45.6,28.85,45.83,29.25,46.09,29.66Z" transform="translate(-4.19 -0.93)"/></svg>