<svg id="Layer_1" data-name="Layer 1" xmlns="http://www.w3.org/2000/svg" xmlns:xlink="http://www.w3.org/1999/xlink" viewBox="0 0 872 258.22"><defs><style>.cls-1,.cls-2{stroke-miterlimit:10;}.cls-1{stroke-width:4px;fill:url(#linear-gradient);stroke:url(#linear-gradient-2);}.cls-2{fill:#f4a91d;stroke:#f5891f;stroke-width:3px;}</style><linearGradient id="linear-gradient" x1="3.7" y1="129.11" x2="764.41" y2="129.11" gradientUnits="userSpaceOnUse"><stop offset="0" stop-color="#de5026"/><stop offset="0.43" stop-color="#de5026"/><stop offset="0.56" stop-color="#e87822"/><stop offset="0.7" stop-color="#f19b1e"/><stop offset="0.78" stop-color="#f4a91d"/><stop offset="1" stop-color="#f4a91d"/></linearGradient><linearGradient id="linear-gradient-2" x1="1.7" y1="129.11" x2="766.41" y2="129.11" gradientUnits="userSpaceOnUse"><stop offset="0" stop-color="#df2927"/><stop offset="0.16" stop-color="#df3327"/><stop offset="0.43" stop-color="#de4126"/><stop offset="0.52" stop-color="#e55824"/><stop offset="0.69" stop-color="#f17b20"/><stop offset="0.78" stop-color="#f5891f"/><stop offset="1" stop-color="#f5891f"/></linearGradient></defs><path class="cls-1" d="M750.22,115.62c-18.66-7.8-36.81-5.42-53.3,5.55-22.23,14.79-22.82,41-2.42,58.24A162.58,162.58,0,0,1,715.37,200a15.94,15.94,0,0,1-1.56,22.18c-6.09,5.59-16,5.84-23.07.7-8.64-6.24-7.79-14.62-5.54-23.41,1.24-4.85-.83-7.71-5.68-7.1-2.8.35-6.43,1.33-7.94,3.34-3.2,4.26-6.23,9.13-7.57,14.21-1.72,6.52-5.82,10-11.39,12.14-6.36,2.42-11.47-1.48-11.07-8.29a70.88,70.88,0,0,1,2.06-13.27q9.85-38.93,20-77.76c2-7.48,1.44-8.46-6.56-8.11-7.62.34-15.22,1.31-22.83,1.88-3.38.25-5,1.9-5.62,5.19-.8,4.41-1.8,8.8-3,13.14-.4,1.52-1.23,3.79-2.33,4.11-5.45,1.59-11,2.74-17.08,4.11a1.23,1.23,0,0,1-1.49-1.28,56.06,56.06,0,0,0,.43-8.2c-.37-4.92-.49-10-2-14.66-2.49-7.9-11.32-12.15-19.37-9.86-9.9,2.81-15.93,9.53-17.76,19.56-1.69,9.24,1.16,17.23,8.71,23,3,2.26,3.44,4.71,2.49,7.8-2.83,9.2-5.24,18.57-8.76,27.51-4.79,12.16-11.28,23.41-21.55,32-4.14,3.46-8.88,5-13.9,2.86-4.85-2.07-5.36-6.84-5.24-11.49a49.13,49.13,0,0,1,.75-8.92q2.35-11.2,5.23-22.31c4.79-18.5,9.76-37,14.59-55.46,1.63-6.23.23-8.14-6-8-7.48.16-15,.68-22.44.92-3.31.1-4.56,1.94-5.29,4.87-4.3,17.08-8.58,34.18-13.13,51.2C498,185.76,495,199.13,487.76,211c-3,4.86-6.83,8.57-12.5,10.08-7,1.88-12.57-1.67-13-8.89a37.57,37.57,0,0,1,1.21-10.84c6.26-25.66,12.69-51.29,19.08-76.92,1.77-7.13.66-8.93-6.61-8.73-6.29.17-12.56,1.22-18.84,1.77-4,.35-6.34,2.44-7.46,6.23-2.25,7.65-4.77,15.23-6.88,22.92-4.47,16.33-8.27,32.87-13.28,49A42.33,42.33,0,0,1,411.61,219c-3.6,2.3-8.34,4.07-11.46.48-2.09-2.42-3.14-7.19-2.41-10.4,6.89-30.45,14.21-60.81,21.65-91.13a6.83,6.83,0,0,1,4.51-4.14c10.34-1.58,20.77-2.57,31.14-4,6.09-.82,12.14-1.94,18.16-3.15a4.37,4.37,0,0,0,2-1.49,1.22,1.22,0,0,0-.06-1.72,11.08,11.08,0,0,0-1.85-1.52,5.49,5.49,0,0,0-2.42-.49c-12.78-.68-25.57-1.3-38.35-2-2.28-.14-4.55-.53-6.95-.88a1.23,1.23,0,0,1-1-1.48c.39-1.75.66-3.07,1-4.37,3-11.56,6.24-23.08,9.13-34.68,2.16-8.67-.76-12.06-9.47-11.33-5.13.44-10.23,1.4-15.36,1.71S402,51,400.84,56c-3.13,13.08-6.65,26.07-9.7,39.17-.82,3.48-2.36,4.52-5.78,4.5a88.81,88.81,0,0,0-14.86.9c-4.44.72-4.66,4.81-4.62,8.3s2.58,4.7,5.73,5c4.17.41,8.32.88,13,1.39a1.23,1.23,0,0,1,1.05,1.51c-2,8.2-3.93,16.11-5.93,24-5.27,20.77-10.44,41.57-16,62.27-2,7.44-6.18,13.86-13.27,17.33-2.62,1.29-6.95,1.59-9.27.24-2-1.14-2.25-5.3-3.05-8.19-.24-.86.24-1.95.48-2.92q8.4-32.82,16.84-65.62c1.67-6.43,3.8-12.75,5.36-19.2.69-2.83,1.24-6.87-3.16-6.9-8.7-.07-17.39.67-26.09,1.08-1.73.13-3.46-1.21-5.39-2.15-17.35-8.46-33.48-5.09-48.14,6.08-22.93,17.47-35.09,41.63-41.36,69.2-.55,2.4-1,5.1-2.38,7-8.84,11.93-19.83,21.12-34.48,25-15.54,4.14-24.71-2-26.17-17.53a1.24,1.24,0,0,1,1-1.31,20.63,20.63,0,0,1,2.22-.4c10-1.19,19.67-3.66,28.36-8.87,18.28-10.94,33-24.92,37.34-46.91,3.85-19.31-8.87-36-28.16-36.78a50.58,50.58,0,0,0-31,9.32C153.39,142,140,171.35,138.75,206.86c-.16,4.56-1.24,7.94-4.64,10.89-4,3.51-10,5.29-13.26,3.12-4.49-3-4.41-7.58-3.29-12.1,3.55-14.33,7.25-28.63,10.95-42.92,2.84-10.93,6.28-21.72,5.59-33.28-.56-9.35-5.67-16.31-14.44-19.58-6.12-2.28-12.09-1.51-18.11.09-12.6,3.33-23.1,10.17-33.07,19.11a1.21,1.21,0,0,1-2-1.22c.77-2.86,1.47-5.46,1.93-8.09,1.07-6.15,4.32-9.94,9.79-13.28C97.05,98.09,114.74,85,127.05,66.12c6.89-10.6,12.23-21.89,11.93-34.9-.41-17.66-12.31-28.72-28.39-27.81-14.37.8-26.31,6.75-36.53,16.36C58.58,34.33,50.71,53.18,45.66,73.23c-8,31.54-15.38,63.2-23,94.83q-9.24,38.5-18.35,77c-1.34,5.62-.94,6.57,4.79,7,7.12.57,14.3.37,21.45.72,5.68.28,8.28-2.39,9.55-7.8,3.77-16,8-31.88,11.92-47.86,3.72-15.31,8.54-30.18,18.57-42.6a38.42,38.42,0,0,1,12.53-10.27c9-4.38,15.38.25,13.48,10-2.88,14.81-7,29.37-10.52,44.06-2.76,11.59-7.32,22.84-6.48,35.13.65,9.42,6.68,17.33,15.86,19.4,11.43,2.59,22.26,1,31.49-6.73,5-4.17,9.56-8.81,14.32-13.32a1.22,1.22,0,0,1,1.92.32c.37.71.75,1.41,1.18,2.09,7.89,12.32,18.7,19.59,33.76,19.57,19.51,0,34.66-9.16,47.57-22.88,2.35-2.5,4.57-5.12,6.58-7.44a1.22,1.22,0,0,1,2,.31c2.49,5.86,4.54,11.74,7.73,16.93,4.91,8,12.51,12,22.16,12.15,13.62.21,23.83-6.2,32.47-15.91,1.88-2.1,3.63-4.32,5.61-6.78a1.22,1.22,0,0,1,2.16.64c.07.73.12,1.35.16,2,.77,13.16,8.09,20,21.14,20,12.09,0,21.13-6.07,29.12-14.34,1.49-1.55,3-3.08,4.7-4.8a1.21,1.21,0,0,1,2.06.63c2.11,10.88,7,15.89,16.06,17.29,13.28,2,25.21-.9,35.06-10.3,4.54-4.33,8.73-9,13-13.61a1.22,1.22,0,0,1,2.07.56c2.62,11,6.27,16.54,13.94,20.23,13.23,6.37,26.3,6,38-3.26,5.45-4.33,9.91-9.9,14.79-15.12a1.22,1.22,0,0,1,2,.43v0c5,17,20.55,25.54,40.06,21.42,17.57-3.71,29.29-15.19,38.38-29.71,11.56-18.45,20.2-38.2,24.82-59.6.37-1.74,1.54-4.34,2.81-4.66,5.22-1.29,10.58-2,16.31-2.95a1.23,1.23,0,0,1,1.41,1.37,18.43,18.43,0,0,1-.4,2.23c-2.86,10.77-6,21.45-8.56,32.3-2.87,12.43-6.33,24.9-7.35,37.53-1.17,14.43,9.44,24,23.84,24.22,12.47.18,22.51-5.07,31.26-13.41,1.72-1.65,3.35-3.4,5.17-5.32a1.22,1.22,0,0,1,2,.27c5.43,10.55,14.31,15.48,24.9,17.4a82.6,82.6,0,0,0,18.86.94c13.21-.68,24.68-5.85,33.13-16.14,16.27-19.82,12.76-47.09-7.64-63.4-6.5-5.2-12.9-10.53-19-16.14-5.23-4.78-6.21-11.47-3-16.25,3.53-5.27,11.74-8.22,18.73-6.73,6.4,1.36,8.52,4,9.85,12.49.18,1.15.43,2.29.58,3.44.88,7.15,4.4,9.14,10.89,5.72a21.48,21.48,0,0,0,6.44-5.33C767.31,142.33,766.48,122.41,750.22,115.62ZM191.16,144.76a34.5,34.5,0,0,1,11-9c6.43-3.21,11.95.62,12.61,7.81.81,8.86-2.77,16.33-7.87,23.07C199.25,176.66,188.72,182,176,185.17a1.21,1.21,0,0,1-1.46-1.47C178,169.26,182.12,155.9,191.16,144.76ZM96.83,38.19a27.35,27.35,0,0,1,5.39-5.82c3-2.33,6.47-3.81,10.16-1.71,3.87,2.2,4,6.24,3,9.73-1.8,6.34-3.63,12.85-6.72,18.61C101,73.24,89.84,84.67,78,95.47a4.45,4.45,0,0,1-.63.46,1.21,1.21,0,0,1-1.82-1.38C81.57,74.7,85.14,55,96.83,38.19Zm208.69,159.7c-4,7.3-9.44,14-15,20.26-3.8,4.32-9.49,4.69-14.8,2.52-5.71-2.34-7-7.84-6.51-12.94,2.34-22.95,8.43-44.68,23.09-63.19a24.42,24.42,0,0,1,3.57-3.47c4.85-4.06,10.23-6.6,16.49-3.71s7.14,8.6,7.37,15a1,1,0,0,1,0,.17A115.14,115.14,0,0,1,305.52,197.89Z"/><path class="cls-2" d="M807.79,202.68c28.05-6.39,49-21.54,58.35-49.55,7.86-23.47-6.41-42.17-31-41.55-12.8.32-24.11,5.23-33.86,13.13-27.8,22.51-40.46,52.09-39.39,87.62.63,20.92,13.76,36.35,34,40.61,10.31,2.17,20.28.55,29.69-3.77,17.07-7.82,30.16-20,38.29-37.06,2.19-4.61.92-9.94-2.46-11.71-4.35-2.27-5.86,2-7.93,4.16-9,9.21-19,16.6-31.93,19.4-14.87,3.2-23.82-3.72-24.34-19.89,1.87-.17,3.51-.26,5.13-.47C804.19,203.35,806,203.09,807.79,202.68Zm12.4-64.58a17.07,17.07,0,0,1,4.64-2.89c8.15-3.73,14.89.51,14.92,9.56,0,7.43-3,13.95-7.23,19.84-8.3,11.54-19.8,17.73-34.94,20.26C801.83,166.81,807,150.51,820.19,138.1Z"/><path class="cls-2" d="M681,63.36c-.07,17.2-14.85,29-31.7,25.23-5.75-1.28-10.51-6.57-11.41-13.09-2.1-15.28,9.45-32.89,28-30C676.22,47,681,52.28,681,63.36Z"/></svg>