<?xml version="1.0" encoding="UTF-8" standalone="no"?>
<svg
   width="90"
   height="89.999992"
   viewBox="0 0 20 19.999998"
   fill="none"
   version="1.1"
   id="svg1"
   sodipodi:docname="info_circle.svg"
   inkscape:export-filename="info_circle.svg"
   inkscape:export-xdpi="96"
   inkscape:export-ydpi="96"
   xmlns:inkscape="http://www.inkscape.org/namespaces/inkscape"
   xmlns:sodipodi="http://sodipodi.sourceforge.net/DTD/sodipodi-0.dtd"
   xmlns="http://www.w3.org/2000/svg"
   xmlns:svg="http://www.w3.org/2000/svg">
  <sodipodi:namedview
     id="namedview1"
     pagecolor="#ffffff"
     bordercolor="#000000"
     borderopacity="0.25"
     inkscape:showpageshadow="2"
     inkscape:pageopacity="0.0"
     inkscape:pagecheckerboard="0"
     inkscape:deskcolor="#d1d1d1">
    <inkscape:page
       x="0"
       y="0"
       width="20"
       height="19.999998"
       id="page2"
       margin="0"
       bleed="0" />
  </sodipodi:namedview>
  <g
     clip-path="url(#clip0_11_1328)"
     id="g1"
     transform="translate(-2,-2.0000001)">
    <path
       d="m 11,7 h 2 v 2 h -2 z m 1,10 c 0.55,0 1,-0.45 1,-1 v -4 c 0,-0.55 -0.45,-1 -1,-1 -0.55,0 -1,0.45 -1,1 v 4 c 0,0.55 0.45,1 1,1 z M 12,2 C 6.48,2 2,6.48 2,12 2,17.52 6.48,22 12,22 17.52,22 22,17.52 22,12 22,6.48 17.52,2 12,2 Z m 0,18 C 7.59,20 4,16.41 4,12 4,7.59 7.59,4 12,4 c 4.41,0 8,3.59 8,8 0,4.41 -3.59,8 -8,8 z"
       fill="#323232"
       id="path1"
       style="fill:#b3b3b3" />
  </g>
  <defs
     id="defs1">
    <clipPath
       id="clip0_11_1328">
      <rect
         width="24"
         height="24"
         fill="#ffffff"
         id="rect1"
         x="0"
         y="0" />
    </clipPath>
  </defs>
</svg>
