<svg id="Layer_2" data-name="Layer 2" xmlns="http://www.w3.org/2000/svg" viewBox="0 0 37.93 37.93"><defs><style>.cls-1{fill:#fff;}</style></defs><rect class="cls-1" x="16.28" y="16.28" width="5.37" height="5.37"/><path class="cls-1" d="M24.39,16.28H36.84a1.08,1.08,0,0,1,1.08,1.08v3.2a1.08,1.08,0,0,1-1.08,1.08H24.39a0,0,0,0,1,0,0V16.28A0,0,0,0,1,24.39,16.28Z"/><path class="cls-1" d="M25.23,17.12H37.69a1.08,1.08,0,0,1,1.08,1.08v3.2a1.08,1.08,0,0,1-1.08,1.08H25.23a0,0,0,0,1,0,0V17.12a0,0,0,0,1,0,0Z" transform="translate(-0.84 38.77) rotate(-90)"/><path class="cls-1" d="M13,29.31H25.49a1.08,1.08,0,0,1,1.08,1.08v3.2a1.08,1.08,0,0,1-1.08,1.08H13a0,0,0,0,1,0,0V29.31a0,0,0,0,1,0,0Z" transform="translate(26.57 50.96) rotate(-180)"/><path class="cls-1" d="M25.23,41.51H37.69a1.08,1.08,0,0,1,1.08,1.08v3.2a1.08,1.08,0,0,1-1.08,1.08H25.23a0,0,0,0,1,0,0V41.51A0,0,0,0,1,25.23,41.51Z" transform="translate(63.16 -0.84) rotate(90)"/></svg>