<?xml version="1.0" encoding="UTF-8" standalone="no"?>
<svg
   version="1.0"
   width="136.5531pt"
   height="188.85625pt"
   viewBox="0 0 136.5531 188.85625"
   preserveAspectRatio="xMidYMid"
   id="svg1"
   sodipodi:docname="QuestionMark.svg"
   xmlns:inkscape="http://www.inkscape.org/namespaces/inkscape"
   xmlns:sodipodi="http://sodipodi.sourceforge.net/DTD/sodipodi-0.dtd"
   xmlns="http://www.w3.org/2000/svg"
   xmlns:svg="http://www.w3.org/2000/svg">
  <defs
     id="defs1" />
  <sodipodi:namedview
     id="namedview1"
     pagecolor="#ffffff"
     bordercolor="#000000"
     borderopacity="0.25"
     inkscape:showpageshadow="2"
     inkscape:pageopacity="0.0"
     inkscape:pagecheckerboard="0"
     inkscape:deskcolor="#d1d1d1"
     inkscape:document-units="pt"
     inkscape:export-bgcolor="#ff060600">
    <inkscape:page
       x="0"
       y="0"
       width="136.5531"
       height="188.85625"
       id="page2"
       margin="0"
       bleed="0" />
  </sodipodi:namedview>
  <g
     transform="matrix(0.1,0,0,-0.1,-44.326366,206.85625)"
     fill="#000000"
     stroke="none"
     id="g1">
    <path
       d="m 1275,2055 c 40,-8 115,-37 175,-66 88,-44 117,-65 185,-133 178,-178 221,-389 121,-591 -43,-87 -108,-151 -230,-224 -116,-71 -174,-137 -190,-220 -13,-70 -16,-71 -237,-71 H 900 l -16,25 c -25,38 -15,193 16,260 37,79 157,191 266,248 50,27 106,64 125,83 28,29 33,42 37,93 5,73 -13,104 -86,144 -65,35 -143,44 -213,24 -69,-20 -100,-44 -184,-139 -74,-84 -92,-95 -127,-77 -61,32 -268,202 -274,224 -12,47 125,217 241,301 72,51 176,97 255,113 30,6 64,13 75,15 49,9 196,4 260,-9 z m 47,-1422 c 16,-15 18,-35 18,-216 0,-172 -2,-203 -17,-219 -15,-16 -35,-18 -216,-18 -172,0 -203,2 -219,17 -16,15 -18,35 -18,216 0,172 2,203 17,219 15,16 35,18 216,18 172,0 203,-2 219,-17 z"
       id="path1"
       sodipodi:nodetypes="ccscccscccccccccccccccsssssssss"
       style="fill:#ffffff" />
  </g>
</svg>
